<?xml version="1.0" standalone="no"?>
<!DOCTYPE svg PUBLIC "-//W3C//DTD SVG 20010904//EN"
 "http://www.w3.org/TR/2001/REC-SVG-20010904/DTD/svg10.dtd">
<svg version="1.0" xmlns="http://www.w3.org/2000/svg"
 width="2299.000000pt" height="2299.000000pt" viewBox="0 0 2299.000000 2299.000000"
 preserveAspectRatio="xMidYMid meet">
<metadata>
Created by potrace 1.14, written by Peter Selinger 2001-2017
</metadata>
<g transform="translate(0.000000,2299.000000) scale(0.100000,-0.100000)"
fill="#000000" stroke="none">
<path d="M0 11495 l0 -11495 11495 0 11495 0 0 11495 0 11495 -11495 0 -11495
0 0 -11495z m16720 2260 c0 -2 -16 -48 -36 -102 -19 -54 -80 -222 -134 -373
-54 -151 -164 -457 -245 -680 -80 -223 -179 -497 -220 -610 -40 -113 -132
-367 -203 -565 -71 -198 -193 -535 -270 -750 -77 -214 -149 -415 -161 -445
-11 -30 -90 -251 -176 -490 -87 -239 -162 -447 -167 -462 l-10 -28 -719 0
c-523 0 -719 3 -719 11 0 11 53 160 213 604 36 99 219 608 407 1130 188 523
410 1137 492 1365 83 228 163 451 178 495 16 44 65 181 110 305 45 124 106
295 137 380 30 85 61 170 68 188 l14 32 720 0 c397 0 721 -2 721 -5z m-3830
-16 c0 -6 -41 -124 -91 -262 -50 -139 -111 -307 -135 -374 -24 -68 -64 -178
-88 -245 -46 -128 -409 -1136 -620 -1723 -68 -187 -248 -688 -401 -1112 l-278
-773 -723 0 -723 0 43 123 c69 191 162 449 309 857 184 510 826 2291 947 2630
116 323 305 847 315 873 7 16 51 17 726 17 514 0 719 -3 719 -11z m-6720 -6
c0 -5 -13 -44 -29 -88 -84 -232 -305 -846 -396 -1100 -58 -159 -160 -445 -229
-635 l-124 -345 -721 -3 c-455 -1 -721 1 -721 7 0 9 108 312 310 871 49 135
170 470 268 745 99 275 185 512 191 528 l11 27 720 0 c396 0 720 -3 720 -7z
m2696 -25 c-8 -18 -50 -134 -94 -258 -44 -124 -155 -432 -246 -685 -91 -253
-166 -464 -166 -469 0 -6 276 -7 714 -3 393 3 717 3 719 0 6 -5 -5 -34 -193
-558 -62 -170 -160 -445 -220 -610 -59 -165 -172 -478 -250 -695 -163 -453
-347 -965 -393 -1092 l-32 -88 -723 0 c-575 0 -723 3 -719 13 4 11 716 1988
983 2730 57 159 104 291 104 293 0 2 -324 4 -720 4 -396 0 -720 2 -720 4 0 2
27 78 59 168 33 90 148 408 255 708 108 300 198 551 201 558 3 9 158 12 729
12 l725 0 -13 -32z m9254 -1568 c0 -5 -115 -327 -255 -716 -140 -390 -255
-711 -255 -714 0 -3 322 -4 715 -2 618 2 715 0 715 -12 0 -8 -14 -52 -31 -98
-17 -46 -81 -225 -144 -398 -62 -173 -163 -455 -225 -626 l-112 -311 -720 -7
c-397 -3 -723 -5 -725 -2 -2 2 96 280 217 617 122 338 239 662 260 722 l39
107 -720 0 c-682 0 -720 1 -715 18 3 9 120 334 260 722 l254 705 708 5 c390 3
715 3 722 1 6 -2 12 -7 12 -11z m-4140 -338 c0 -4 -104 -296 -231 -647 -127
-352 -243 -675 -257 -717 l-26 -78 -723 0 c-398 0 -723 2 -723 4 0 3 50 143
111 313 61 169 144 400 184 513 41 113 106 293 144 400 39 107 73 201 76 208
3 9 158 12 725 12 396 0 720 -4 720 -8z m-7166 -339 c-60 -166 -729 -2020
-772 -2143 l-27 -75 -722 -3 c-398 -1 -723 1 -723 4 0 3 61 174 135 379 74
206 164 454 199 552 35 98 128 356 206 573 78 217 171 476 207 575 36 99 69
192 75 208 l10 27 724 0 723 0 -35 -97z"/>
</g>
</svg>
